<?xml version="1.0" encoding="utf-8"?>
<!-- Generator: Adobe Illustrator 16.0.0, SVG Export Plug-In . SVG Version: 6.00 Build 0)  -->
<!DOCTYPE svg PUBLIC "-//W3C//DTD SVG 1.1//EN" "http://www.w3.org/Graphics/SVG/1.1/DTD/svg11.dtd">
<svg version="1.1" id="Layer_1" xmlns="http://www.w3.org/2000/svg" xmlns:xlink="http://www.w3.org/1999/xlink" x="0px" y="0px"
	 width="52.357px" height="54px" viewBox="0 0 52.357 54" enable-background="new 0 0 52.357 54" xml:space="preserve">
<g>
	<path d="M32.428,16.894v17.5c0,0.694-0.556,1.25-1.25,1.25h-10c-0.694,0-1.25-0.556-1.25-1.25v-17.5c0-0.694,0.556-1.25,1.25-1.25
		h10C31.873,15.644,32.428,16.2,32.428,16.894z M30.345,18.978h-8.333v11.666h8.333V18.978z M27.428,33.144
		c0-0.694-0.555-1.25-1.25-1.25c-0.695,0-1.25,0.556-1.25,1.25s0.555,1.25,1.25,1.25C26.873,34.394,27.428,33.838,27.428,33.144z"/>
</g>
</svg>
