<?xml version="1.0" encoding="utf-8"?>
<!-- Generator: Adobe Illustrator 16.0.0, SVG Export Plug-In . SVG Version: 6.00 Build 0)  -->
<!DOCTYPE svg PUBLIC "-//W3C//DTD SVG 1.1//EN" "http://www.w3.org/Graphics/SVG/1.1/DTD/svg11.dtd">
<svg version="1.1" id="Layer_1" xmlns="http://www.w3.org/2000/svg" xmlns:xlink="http://www.w3.org/1999/xlink" x="0px" y="0px"
	 width="97px" height="78px" viewBox="0 0 97 78" enable-background="new 0 0 97 78" xml:space="preserve">
<polygon points="74.898,67.083 74.898,64.305 69.34,64.305 69.34,61.526 66.562,61.526 66.562,58.747 63.783,58.747 63.783,55.969 
	72.12,55.969 72.12,53.19 74.898,53.19 74.898,42.075 72.12,42.075 72.12,36.518 69.34,36.518 69.34,33.739 66.562,33.739 
	66.562,17.066 63.783,17.066 63.783,14.288 61.005,14.288 61.005,11.509 58.226,11.509 58.226,8.73 55.447,8.73 55.447,5.951 
	47.111,5.951 47.111,8.73 41.553,8.73 41.553,11.509 38.775,11.509 38.775,14.288 35.996,14.288 35.996,19.846 33.217,19.846 
	33.217,28.181 35.996,28.181 35.996,30.96 33.217,30.96 33.217,33.739 27.66,33.739 27.66,36.518 24.88,36.518 24.88,42.075 
	22.102,42.075 22.102,53.19 24.88,53.19 24.88,55.969 33.217,55.969 33.217,58.747 30.438,58.747 30.438,61.526 27.66,61.526 
	27.66,64.305 22.102,64.305 22.102,67.083 19.323,67.083 19.323,72.642 44.332,72.642 44.332,64.305 47.111,64.305 47.111,61.526 
	49.89,61.526 49.89,64.305 52.668,64.305 52.668,72.642 77.677,72.642 77.677,67.083 "/>
</svg>
