<?xml version="1.0" encoding="utf-8"?>
<!-- Generator: Adobe Illustrator 16.0.0, SVG Export Plug-In . SVG Version: 6.00 Build 0)  -->
<!DOCTYPE svg PUBLIC "-//W3C//DTD SVG 1.1//EN" "http://www.w3.org/Graphics/SVG/1.1/DTD/svg11.dtd">
<svg version="1.1" id="Layer_1" xmlns="http://www.w3.org/2000/svg" xmlns:xlink="http://www.w3.org/1999/xlink" x="0px" y="0px"
	 width="93.6px" height="78px" viewBox="0 0 93.6 78" enable-background="new 0 0 93.6 78" xml:space="preserve">
<g>
	<rect x="31.517" y="53.19" fill="none" width="2.779" height="2.779"/>
	<rect x="59.305" y="53.19" fill="none" width="2.778" height="2.779"/>
	<polygon fill="#FFFFFF" points="53.747,30.96 48.19,30.96 48.19,25.403 53.747,25.403 53.747,22.624 45.411,22.624 45.411,25.403 
		42.632,25.403 42.632,30.96 45.411,30.96 45.411,33.739 53.747,33.739 	"/>
	<polygon fill="#FFFFFF" points="59.305,30.96 62.083,30.96 62.083,22.624 59.305,22.624 59.305,25.403 	"/>
	<rect x="56.525" y="30.96" fill="#FFFFFF" width="2.779" height="2.779"/>
	<rect x="67.64" y="36.518" fill="#010302" width="2.779" height="5.558"/>
	<rect x="37.075" y="11.509" fill="#010302" width="2.778" height="2.779"/>
	<rect x="53.747" y="8.73" fill="#010302" width="2.779" height="2.778"/>
	<polygon fill="#010302" points="67.64,64.305 67.64,61.526 64.862,61.526 64.862,58.747 62.083,58.747 62.083,64.305 	"/>
	<path fill="#010302" d="M64.051,21.059c0.009,0,0.016,0.006,0.016,0.012v13.429c0,0.006-0.007,0.012-0.016,0.012h-4.747v2.006
		h5.558h2.778v-2.778h-2.778V17.066h-2.779v3.992H64.051z"/>
	<polygon fill="#010302" points="50.968,14.288 50.968,19.846 53.747,19.846 53.747,17.066 59.305,17.066 62.083,17.066 
		62.083,14.288 59.305,14.288 59.305,11.509 56.525,11.509 56.525,14.288 	"/>
	<polygon fill="#010302" points="48.19,8.73 53.747,8.73 53.747,5.951 45.411,5.951 45.411,8.73 39.853,8.73 39.853,11.509 
		48.19,11.509 	"/>
	<rect x="45.411" y="34.511" fill="#010302" width="11.115" height="2.006"/>
	<polygon fill="#010302" points="37.075,42.075 34.296,42.075 34.296,44.854 31.517,44.854 28.738,44.854 28.738,47.632 
		31.517,47.632 31.517,53.19 34.296,53.19 34.296,55.969 37.075,55.969 37.075,50.411 	"/>
	<rect x="37.075" y="33.739" fill="#010302" width="2.778" height="2.778"/>
	<rect x="59.305" y="55.969" fill="#010302" width="2.778" height="2.778"/>
	<polygon fill="#010302" points="62.083,53.19 62.083,47.632 64.862,47.632 64.862,44.854 62.083,44.854 59.305,44.854 
		59.305,42.075 56.525,42.075 56.525,50.411 56.525,55.969 59.305,55.969 59.305,53.19 	"/>
	<rect x="62.083" y="53.19" fill="#010302" width="8.336" height="2.779"/>
	<rect x="48.19" y="11.509" fill="#010302" width="2.778" height="2.779"/>
	<rect x="42.632" y="39.296" fill="#010302" width="13.894" height="2.779"/>
	<rect x="39.853" y="36.518" fill="#010302" width="2.779" height="2.779"/>
	<polygon fill="#010302" points="39.853,69.862 20.402,69.862 20.402,67.083 17.623,67.083 17.623,72.642 42.632,72.642 
		42.632,64.305 39.853,64.305 	"/>
	<rect x="42.632" y="61.526" fill="#010302" width="2.779" height="2.778"/>
	<rect x="56.525" y="36.518" fill="#010302" width="2.779" height="2.779"/>
	<rect x="20.402" y="64.305" fill="#010302" width="5.558" height="2.779"/>
	<rect x="31.517" y="19.846" fill="#010302" width="2.779" height="8.335"/>
	<polygon fill="#010302" points="73.198,67.083 73.198,69.862 53.747,69.862 53.747,64.305 50.968,64.305 50.968,72.642 
		75.977,72.642 75.977,67.083 	"/>
	<rect x="20.402" y="42.075" fill="#010302" width="2.778" height="11.115"/>
	<rect x="45.411" y="58.747" fill="#010302" width="2.779" height="2.779"/>
	<polygon fill="#010302" points="31.517,58.747 28.738,58.747 28.738,61.526 25.96,61.526 25.96,64.305 31.517,64.305 	"/>
	<rect x="48.19" y="61.526" fill="#010302" width="2.778" height="2.778"/>
	<polygon fill="#010302" points="37.075,28.181 34.296,28.181 34.296,30.96 31.517,30.96 31.517,33.739 37.075,33.739 	"/>
	<polygon fill="#010302" points="31.517,36.518 31.517,33.739 25.96,33.739 25.96,36.518 28.738,36.518 	"/>
	<rect x="67.64" y="64.305" fill="#010302" width="5.558" height="2.779"/>
	<rect x="31.517" y="55.969" fill="#010302" width="2.779" height="2.778"/>
	<rect x="53.747" y="19.846" fill="#010302" width="5.558" height="1.213"/>
	<rect x="70.419" y="42.075" fill="#010302" width="2.779" height="11.115"/>
	<rect x="23.18" y="53.19" fill="#010302" width="8.337" height="2.779"/>
	<rect x="34.296" y="14.288" fill="#010302" width="2.779" height="5.558"/>
	<rect x="23.18" y="36.518" fill="#010302" width="2.78" height="5.558"/>
	<polygon fill="#010302" points="56.525,33.739 53.747,33.739 45.411,33.739 45.411,34.511 56.525,34.511 	"/>
	<path fill="#010302" d="M62.083,30.96v2.779h-2.778v0.772h4.747c0.009,0,0.016-0.006,0.016-0.012V21.07
		c0-0.006-0.007-0.012-0.016-0.012h-1.968v1.565V30.96z"/>
	<rect x="56.525" y="25.403" fill="#010302" width="2.779" height="5.558"/>
	<rect x="48.19" y="25.403" fill="#010302" width="5.557" height="5.558"/>
	<rect x="53.747" y="21.059" fill="#010302" width="5.558" height="1.565"/>
	<path fill="#405A9C" d="M37.075,28.181v5.559h2.778v-8.336h0.674V21.07c0-0.006,0.007-0.012,0.016-0.012h13.204v-1.213h-2.778
		v-5.558H48.19v-2.779h-8.337v2.779h-2.778v5.558V28.181z"/>
	<polygon fill="#405A9C" points="64.862,39.296 62.083,39.296 62.083,44.854 64.862,44.854 64.862,47.632 62.083,47.632 
		62.083,53.19 70.419,53.19 70.419,42.075 67.64,42.075 67.64,36.518 64.862,36.518 	"/>
	<polygon fill="#405A9C" points="39.853,69.862 39.853,64.305 39.853,61.526 37.075,61.526 37.075,58.747 34.296,58.747 
		31.517,58.747 31.517,64.305 25.96,64.305 25.96,67.083 20.402,67.083 20.402,69.862 	"/>
	<polygon fill="#405A9C" points="59.305,19.846 59.305,21.059 62.083,21.059 62.083,17.066 59.305,17.066 	"/>
	<polygon fill="#405A9C" points="31.517,47.632 28.738,47.632 28.738,44.854 31.517,44.854 31.517,39.296 28.738,39.296 
		28.738,36.518 25.96,36.518 25.96,42.075 23.18,42.075 23.18,53.19 31.517,53.19 	"/>
	<polygon fill="#405A9C" points="59.305,61.526 53.747,61.526 53.747,64.305 53.747,69.862 73.198,69.862 73.198,67.083 
		67.64,67.083 67.64,64.305 62.083,64.305 62.083,58.747 59.305,58.747 	"/>
	<polygon fill="#405A9C" points="37.075,50.411 37.075,55.969 39.853,55.969 39.853,58.747 45.411,58.747 48.19,58.747 
		50.968,58.747 50.968,55.969 56.525,55.969 56.525,50.411 	"/>
	<path fill="#405A9C" d="M42.632,34.511h-2.089c-0.009,0-0.016-0.006-0.016-0.012v-0.76h-0.674v2.778h2.779V34.511z"/>
	<path fill="#405A9C" d="M40.527,33.739v0.76c0,0.006,0.007,0.012,0.016,0.012h2.089v-0.772H40.527z"/>
	<polygon fill="#405A9C" points="56.525,25.403 59.305,25.403 59.305,22.624 53.747,22.624 53.747,25.403 	"/>
	<path fill="#405A9C" d="M42.632,22.624h2.779h8.336v-1.565H40.543c-0.009,0-0.016,0.006-0.016,0.012v4.333h2.105V22.624z"/>
	<rect x="59.305" y="21.059" fill="#405A9C" width="2.778" height="1.565"/>
	<rect x="53.747" y="17.066" fill="#32A0C9" width="5.558" height="2.779"/>
	<polygon fill="#32A0C9" points="59.305,44.854 62.083,44.854 62.083,39.296 64.862,39.296 64.862,36.518 59.305,36.518 
		59.305,39.296 56.525,39.296 56.525,42.075 59.305,42.075 	"/>
	<rect x="34.296" y="19.846" fill="#32A0C9" width="2.779" height="8.335"/>
	<polygon fill="#32A0C9" points="28.738,36.518 28.738,39.296 31.517,39.296 31.517,44.854 34.296,44.854 34.296,42.075 
		37.075,42.075 37.075,50.411 56.525,50.411 56.525,42.075 42.632,42.075 42.632,39.296 39.853,39.296 39.853,36.518 37.075,36.518 
		37.075,33.739 31.517,33.739 31.517,36.518 	"/>
	<polygon fill="#32A0C9" points="48.19,11.509 50.968,11.509 50.968,14.288 56.525,14.288 56.525,11.509 53.747,11.509 53.747,8.73 
		48.19,8.73 	"/>
	<polygon fill="#32A0C9" points="39.853,58.747 39.853,55.969 37.075,55.969 34.296,55.969 34.296,58.747 37.075,58.747 
		37.075,61.526 39.853,61.526 39.853,64.305 42.632,64.305 42.632,61.526 45.411,61.526 45.411,58.747 	"/>
	<polygon fill="#32A0C9" points="53.747,61.526 59.305,61.526 59.305,58.747 59.305,55.969 56.525,55.969 50.968,55.969 
		50.968,58.747 48.19,58.747 48.19,61.526 50.968,61.526 50.968,64.305 53.747,64.305 	"/>
	<polygon fill="#E7BFAA" points="56.525,36.518 45.411,36.518 45.411,34.511 42.632,34.511 42.632,36.518 42.632,39.296 
		56.525,39.296 	"/>
	<rect x="56.525" y="34.511" fill="#E7BFAA" width="2.779" height="2.006"/>
	<rect x="39.853" y="25.403" fill="#E7BFAA" width="0.674" height="8.336"/>
	<rect x="59.305" y="30.96" fill="#E7BFAA" width="2.778" height="2.779"/>
	<rect x="42.632" y="22.624" fill="#E7BFAA" width="2.779" height="2.779"/>
	<rect x="56.525" y="33.739" fill="#E7BFAA" width="2.779" height="0.772"/>
	<polygon fill="#E7BFAA" points="56.525,25.403 53.747,25.403 53.747,30.96 53.747,33.739 56.525,33.739 56.525,30.96 	"/>
	<polygon fill="#E7BFAA" points="42.632,33.739 42.632,34.511 45.411,34.511 45.411,33.739 45.411,30.96 42.632,30.96 
		42.632,25.403 40.527,25.403 40.527,33.739 	"/>
</g>
</svg>
